<svg width="2066" height="512" viewBox="0 0 2066 512" fill="none" xmlns="http://www.w3.org/2000/svg">
<circle cx="241" cy="254" r="195" fill="#FAFAFA" stroke="#001D3D" stroke-width="20"/>
<line x1="158.823" y1="171.447" x2="188.035" y2="219.11" stroke="#001D3D" stroke-width="8"/>
<line x1="109.605" y1="140.003" x2="186.48" y2="115.403" stroke="#001D3D" stroke-width="8"/>
<line x1="153.968" y1="171.592" x2="184.205" y2="117.267" stroke="#001D3D" stroke-width="8"/>
<line x1="155.576" y1="173.477" x2="111.501" y2="149.902" stroke="#001D3D" stroke-width="8"/>
<line x1="110.185" y1="144.286" x2="100.96" y2="221.673" stroke="#001D3D" stroke-width="8"/>
<line x1="126.087" y1="291.394" x2="97.8992" y2="222.719" stroke="#001D3D" stroke-width="8"/>
<line x1="128.56" y1="293.682" x2="66.5475" y2="273.695" stroke="#001D3D" stroke-width="8"/>
<line x1="67.4288" y1="269.864" x2="98.1788" y2="219.127" stroke="#001D3D" stroke-width="8"/>
<line x1="123.154" y1="287.283" x2="181.579" y2="218.608" stroke="#001D3D" stroke-width="8"/>
<line x1="128.792" y1="286.829" x2="187.217" y2="336.541" stroke="#001D3D" stroke-width="8"/>
<line x1="94.4513" y1="356.918" x2="135.451" y2="374.343" stroke="#001D3D" stroke-width="8"/>
<line x1="89.8571" y1="357.988" x2="115.482" y2="328.263" stroke="#001D3D" stroke-width="8"/>
<line x1="117.056" y1="329.28" x2="137.556" y2="376.43" stroke="#001D3D" stroke-width="8"/>
<line x1="114.603" y1="331.565" x2="123.828" y2="289.027" stroke="#001D3D" stroke-width="8"/>
<line x1="115.401" y1="334.928" x2="67.739" y2="275.99" stroke="#001D3D" stroke-width="8"/>
<line x1="97" y1="217" x2="184" y2="217" stroke="#001D3D" stroke-width="8"/>
<line x1="182.349" y1="338.378" x2="199.262" y2="285.078" stroke="#001D3D" stroke-width="8"/>
<line x1="186.563" y1="336.089" x2="286.5" y2="391.439" stroke="#001D3D" stroke-width="8"/>
<line x1="200.505" y1="380.207" x2="285.068" y2="390.97" stroke="#001D3D" stroke-width="8"/>
<line x1="262.489" y1="432.706" x2="280.939" y2="393.243" stroke="#001D3D" stroke-width="8"/>
<line x1="203.557" y1="382.345" x2="221.494" y2="417.195" stroke="#001D3D" stroke-width="8"/>
<line x1="265.162" y1="434.698" x2="216.987" y2="422.91" stroke="#001D3D" stroke-width="8"/>
<line x1="199.374" y1="383.641" x2="181.949" y2="341.104" stroke="#001D3D" stroke-width="8"/>
<line x1="199.869" y1="384.073" x2="137.344" y2="382.023" stroke="#001D3D" stroke-width="8"/>
<line x1="202.828" y1="382.903" x2="168.491" y2="417.241" stroke="#001D3D" stroke-width="8"/>
<line x1="221.196" y1="423.011" x2="165.334" y2="418.399" stroke="#001D3D" stroke-width="8"/>
<line x1="165.703" y1="417.019" x2="134.441" y2="380.632" stroke="#001D3D" stroke-width="8"/>
<line x1="188.74" y1="337.008" x2="136.465" y2="381.083" stroke="#001D3D" stroke-width="8"/>
<line x1="187.435" y1="218.353" x2="265.847" y2="295.74" stroke="#001D3D" stroke-width="8"/>
<line x1="288.11" y1="251.237" x2="262.997" y2="299.412" stroke="#001D3D" stroke-width="8"/>
<line x1="256.25" y1="233.055" x2="263.425" y2="297.117" stroke="#001D3D" stroke-width="8"/>
<line x1="289.819" y1="252.897" x2="251.381" y2="231.885" stroke="#001D3D" stroke-width="8"/>
<line x1="187.375" y1="217.261" x2="256.562" y2="229.561" stroke="#001D3D" stroke-width="8"/>
<line x1="233.907" y1="198.757" x2="259.02" y2="231.044" stroke="#001D3D" stroke-width="8"/>
<line x1="228.447" y1="197.942" x2="264.834" y2="172.317" stroke="#001D3D" stroke-width="8"/>
<line x1="185.023" y1="217.557" x2="229.098" y2="197.569" stroke="#001D3D" stroke-width="8"/>
<line x1="184.783" y1="336.064" x2="261.145" y2="295.064" stroke="#001D3D" stroke-width="8"/>
<line x1="200.704" y1="283.375" x2="263.742" y2="294.65" stroke="#001D3D" stroke-width="8"/>
<line x1="199.188" y1="288.255" x2="182.788" y2="220.605" stroke="#001D3D" stroke-width="8"/>
<line x1="199.716" y1="287.206" x2="127.966" y2="291.306" stroke="#001D3D" stroke-width="8"/>
<line x1="280.657" y1="395.801" x2="259.132" y2="298.426" stroke="#001D3D" stroke-width="8"/>
<line x1="281" y1="393.119" x2="330.712" y2="295.744" stroke="#001D3D" stroke-width="8"/>
<line x1="262.98" y1="294.588" x2="334.218" y2="293.563" stroke="#001D3D" stroke-width="8"/>
<line x1="287.346" y1="246.515" x2="337.059" y2="294.69" stroke="#001D3D" stroke-width="8"/>
<line x1="405.146" y1="252.731" x2="336.471" y2="297.831" stroke="#001D3D" stroke-width="8"/>
<line x1="402.706" y1="255.063" x2="384.768" y2="320.15" stroke="#001D3D" stroke-width="8"/>
<line x1="373.359" y1="373.407" x2="381.046" y2="314.47" stroke="#001D3D" stroke-width="8"/>
<line x1="373.808" y1="375.831" x2="330.758" y2="296.393" stroke="#001D3D" stroke-width="8"/>
<line x1="375.493" y1="377.48" x2="308.868" y2="343.143" stroke="#001D3D" stroke-width="8"/>
<line x1="373" y1="378" x2="331" y2="378" stroke="#001D3D" stroke-width="8"/>
<line x1="312.632" y1="339.648" x2="334.67" y2="378.085" stroke="#001D3D" stroke-width="8"/>
<line x1="283.582" y1="387.984" x2="330.22" y2="376.197" stroke="#001D3D" stroke-width="8"/>
<line x1="312.165" y1="413.311" x2="327.54" y2="378.461" stroke="#001D3D" stroke-width="8"/>
<line x1="315.818" y1="415.033" x2="265.081" y2="436.046" stroke="#001D3D" stroke-width="8"/>
<line x1="335.918" y1="294.428" x2="382.556" y2="315.44" stroke="#001D3D" stroke-width="8"/>
<line x1="403" y1="253" x2="290" y2="253" stroke="#3D405A" stroke-width="8"/>
<line x1="403" y1="253" x2="290" y2="253" stroke="#001D3D" stroke-width="8"/>
<line x1="400.691" y1="252.688" x2="324.328" y2="200.413" stroke="#001D3D" stroke-width="8"/>
<line x1="367.285" y1="138.92" x2="325.26" y2="199.395" stroke="#001D3D" stroke-width="8"/>
<line x1="302.748" y1="118.077" x2="325.811" y2="195.977" stroke="#001D3D" stroke-width="8"/>
<line x1="362.966" y1="140.501" x2="297.878" y2="123.076" stroke="#001D3D" stroke-width="8"/>
<line x1="366.811" y1="135.753" x2="402.653" y2="250.97" stroke="#001D3D" stroke-width="8"/>
<line x1="288.352" y1="250.331" x2="323.202" y2="194.981" stroke="#001D3D" stroke-width="8"/>
<line x1="252.024" y1="229.922" x2="324.799" y2="193.535" stroke="#001D3D" stroke-width="8"/>
<line x1="270.592" y1="171.842" x2="327.992" y2="193.367" stroke="#001D3D" stroke-width="8"/>
<line x1="265.886" y1="173.329" x2="299.199" y2="124.641" stroke="#001D3D" stroke-width="8"/>
<line x1="188.102" y1="117.235" x2="234.739" y2="199.235" stroke="#001D3D" stroke-width="8"/>
<line x1="182.04" y1="116.16" x2="232.265" y2="73.6225" stroke="#001D3D" stroke-width="8"/>
<line x1="184.888" y1="115.221" x2="301.738" y2="122.909" stroke="#001D3D" stroke-width="8"/>
<line x1="233.066" y1="73.414" x2="303.791" y2="123.639" stroke="#001D3D" stroke-width="8"/>
<line x1="188" y1="120" x2="188" y2="221" stroke="#001D3D" stroke-width="8"/>
<circle cx="185.5" cy="219.5" r="7.5" fill="#003566"/>
<circle cx="138" cy="378" r="8" fill="#003566"/>
<ellipse cx="221" cy="418.5" rx="8" ry="7.5" fill="#003566"/>
<ellipse cx="128" cy="287.5" rx="8" ry="7.5" fill="#001D3D"/>
<ellipse cx="99" cy="220.5" rx="8" ry="7.5" fill="#003566"/>
<circle cx="187.5" cy="117.5" r="7.5" fill="#003566"/>
<circle cx="254.5" cy="232.5" r="7.5" fill="#001D3D"/>
<circle cx="200.5" cy="285.5" r="7.5" fill="#001D3D"/>
<ellipse cx="373" cy="374" rx="8" ry="7" fill="#001D3D"/>
<circle cx="199.5" cy="381.5" r="7.5" fill="#001D3D"/>
<circle cx="263.5" cy="432.5" r="7.5" fill="#001D3D"/>
<ellipse cx="92.5" cy="357" rx="7.5" ry="8" fill="#001D3D"/>
<circle cx="115.5" cy="332.5" r="7.5" fill="#003566"/>
<circle cx="184" cy="338" r="8" fill="#FFD60A"/>
<ellipse cx="167.5" cy="417" rx="7.5" ry="8" fill="#FFD60A"/>
<circle cx="68" cy="272" r="8" fill="#FFD60A"/>
<circle cx="282.5" cy="391.5" r="7.5" fill="#003566"/>
<circle cx="314.5" cy="413.5" r="7.5" fill="#003566"/>
<circle cx="334.5" cy="294.5" r="7.5" fill="#FACC15"/>
<ellipse cx="262" cy="294.5" rx="8" ry="7.5" fill="#003566"/>
<ellipse cx="290.5" cy="252" rx="7.5" ry="8" fill="#2C7C8C"/>
<ellipse cx="290.5" cy="252" rx="7.5" ry="8" fill="#003566"/>
<ellipse cx="398.5" cy="252" rx="7.5" ry="8" fill="#003566"/>
<ellipse cx="382" cy="317.5" rx="8" ry="7.5" fill="#003566"/>
<ellipse cx="323.5" cy="198" rx="7.5" ry="8" fill="#FFD60A"/>
<circle cx="231" cy="198" r="8" fill="#FFD60A"/>
<ellipse cx="331.5" cy="376" rx="7.5" ry="8" fill="#FFD60A"/>
<ellipse cx="365" cy="137.5" rx="8" ry="7.5" fill="#001D3D"/>
<circle cx="302.5" cy="123.5" r="7.5" fill="#003566"/>
<circle cx="267.5" cy="173.5" r="7.5" fill="#001D3D"/>
<circle cx="155" cy="170" r="8" fill="#001D3D"/>
<circle cx="310.5" cy="341.5" r="7.5" fill="#001D3D"/>
<ellipse cx="232" cy="76.5" rx="8" ry="7.5" fill="#FFD60A"/>
<circle cx="110.5" cy="144.5" r="7.5" fill="#FFD60A"/>
<path d="M482.824 388V133.455H568.832C588.719 133.455 605.042 136.852 617.803 143.646C630.563 150.358 640.009 159.597 646.141 171.363C652.272 183.129 655.338 196.511 655.338 211.509C655.338 226.506 652.272 239.805 646.141 251.406C640.009 263.006 630.604 272.12 617.927 278.749C605.249 285.295 589.05 288.568 569.33 288.568H499.727V260.727H568.335C581.924 260.727 592.862 258.739 601.148 254.761C609.517 250.784 615.565 245.15 619.294 237.858C623.106 230.483 625.011 221.7 625.011 211.509C625.011 201.317 623.106 192.409 619.294 184.786C615.482 177.163 609.392 171.28 601.023 167.137C592.655 162.911 581.593 160.798 567.838 160.798H513.648V388H482.824ZM602.639 273.653L665.281 388H629.486L567.838 273.653H602.639ZM911.53 213H880.707C878.884 204.134 875.693 196.345 871.136 189.634C866.662 182.922 861.193 177.287 854.73 172.73C848.35 168.09 841.265 164.61 833.476 162.29C825.688 159.97 817.567 158.81 809.116 158.81C793.704 158.81 779.742 162.704 767.23 170.493C754.801 178.282 744.899 189.758 737.525 204.921C730.233 220.085 726.587 238.687 726.587 260.727C726.587 282.768 730.233 301.37 737.525 316.533C744.899 331.697 754.801 343.173 767.23 350.962C779.742 358.75 793.704 362.645 809.116 362.645C817.567 362.645 825.688 361.485 833.476 359.165C841.265 356.845 848.35 353.406 854.73 348.849C861.193 344.209 866.662 338.533 871.136 331.821C875.693 325.027 878.884 317.238 880.707 308.455H911.53C909.21 321.464 904.984 333.105 898.853 343.38C892.721 353.655 885.098 362.396 875.984 369.605C866.869 376.731 856.636 382.158 845.284 385.887C834.015 389.616 821.959 391.48 809.116 391.48C787.406 391.48 768.1 386.177 751.197 375.571C734.293 364.965 720.994 349.884 711.3 330.33C701.605 310.775 696.758 287.574 696.758 260.727C696.758 233.881 701.605 210.68 711.3 191.125C720.994 171.57 734.293 156.49 751.197 145.884C768.1 135.277 787.406 129.974 809.116 129.974C821.959 129.974 834.015 131.839 845.284 135.567C856.636 139.296 866.869 144.765 875.984 151.974C885.098 159.1 892.721 167.8 898.853 178.075C904.984 188.266 909.21 199.908 911.53 213ZM961.339 388V133.455H1114.96V160.798H992.163V246.807H1107.01V274.151H992.163V360.656H1116.95V388H961.339ZM1309.72 197.091C1308.23 184.496 1302.18 174.719 1291.58 167.759C1280.97 160.798 1267.96 157.318 1252.55 157.318C1241.28 157.318 1231.42 159.141 1222.97 162.787C1214.6 166.433 1208.05 171.446 1203.33 177.826C1198.69 184.206 1196.37 191.456 1196.37 199.577C1196.37 206.371 1197.99 212.213 1201.22 217.102C1204.53 221.907 1208.76 225.926 1213.9 229.158C1219.03 232.306 1224.42 234.916 1230.05 236.988C1235.69 238.977 1240.87 240.592 1245.59 241.835L1271.44 248.795C1278.07 250.536 1285.45 252.938 1293.57 256.004C1301.77 259.07 1309.6 263.254 1317.06 268.558C1324.6 273.778 1330.81 280.489 1335.7 288.692C1340.59 296.896 1343.03 306.963 1343.03 318.895C1343.03 332.65 1339.43 345.079 1332.22 356.182C1325.09 367.285 1314.65 376.11 1300.9 382.656C1287.23 389.201 1270.61 392.474 1251.06 392.474C1232.83 392.474 1217.04 389.533 1203.7 383.65C1190.45 377.767 1180.01 369.564 1172.38 359.04C1164.84 348.517 1160.58 336.295 1159.58 322.375H1191.4C1192.23 331.987 1195.46 339.941 1201.09 346.239C1206.81 352.453 1214.02 357.093 1222.72 360.159C1231.5 363.142 1240.95 364.634 1251.06 364.634C1262.83 364.634 1273.39 362.728 1282.75 358.916C1292.12 355.022 1299.53 349.636 1305 342.759C1310.47 335.798 1313.2 327.678 1313.2 318.398C1313.2 309.946 1310.84 303.069 1306.12 297.766C1301.4 292.463 1295.18 288.154 1287.48 284.839C1279.77 281.525 1271.44 278.625 1262.49 276.139L1231.17 267.19C1211.29 261.473 1195.54 253.311 1183.94 242.705C1172.34 232.099 1166.54 218.22 1166.54 201.068C1166.54 186.816 1170.39 174.387 1178.1 163.781C1185.89 153.092 1196.33 144.806 1209.42 138.923C1222.6 132.957 1237.3 129.974 1253.54 129.974C1269.95 129.974 1284.53 132.916 1297.29 138.799C1310.06 144.599 1320.16 152.554 1327.62 162.663C1335.16 172.772 1339.14 184.248 1339.55 197.091H1309.72ZM1379.79 160.798V133.455H1570.7V160.798H1490.66V388H1459.83V160.798H1379.79ZM1618.27 388V133.455H1704.28C1724.17 133.455 1740.49 136.852 1753.25 143.646C1766.01 150.358 1775.46 159.597 1781.59 171.363C1787.72 183.129 1790.79 196.511 1790.79 211.509C1790.79 226.506 1787.72 239.805 1781.59 251.406C1775.46 263.006 1766.05 272.12 1753.38 278.749C1740.7 285.295 1724.5 288.568 1704.78 288.568H1635.18V260.727H1703.78C1717.37 260.727 1728.31 258.739 1736.6 254.761C1744.97 250.784 1751.01 245.15 1754.74 237.858C1758.55 230.483 1760.46 221.7 1760.46 211.509C1760.46 201.317 1758.55 192.409 1754.74 184.786C1750.93 177.163 1744.84 171.28 1736.47 167.137C1728.1 162.911 1717.04 160.798 1703.29 160.798H1649.1V388H1618.27ZM1738.09 273.653L1800.73 388H1764.94L1703.29 273.653H1738.09ZM1852.59 388H1820.28L1913.74 133.455H1945.56L2039.03 388H2006.71L1930.64 173.724H1928.66L1852.59 388ZM1864.52 288.568H1994.78V315.912H1864.52V288.568Z" fill="#001D3D"/>
</svg>
